<svg xmlns="http://www.w3.org/2000/svg" width="126.71" height="148.12" viewBox="0 0 126.71 148.12"><defs><style>.cls-1,.cls-2{fill:#42114a;}.cls-2,.cls-8,.cls-9{opacity:0.2;}.cls-3,.cls-6{fill:#f389a6;}.cls-4{fill:#231f20;}.cls-14,.cls-5,.cls-9{fill:none;}.cls-5,.cls-9{stroke:#fbef5c;stroke-width:0.25px;}.cls-11,.cls-12,.cls-14,.cls-5,.cls-9{stroke-miterlimit:10;}.cls-6{opacity:0.3;}.cls-7,.cls-8{fill:#8b4b47;}.cls-10{fill:#f7a8b9;}.cls-11,.cls-12,.cls-13{fill:#ed1f80;}.cls-11,.cls-12{stroke:#231f20;}.cls-12,.cls-14{stroke-width:0.5px;}.cls-14{stroke:#7f131e;}</style></defs><title>fashionistas_logo</title><g id="Layer_7" data-name="Layer 7"><rect class="cls-1" x="2.38" y="93.89" width="52.65" height="41.62" rx="1.53"/><rect class="cls-2" y="103.8" width="25.05" height="34.15" rx="1.53"/></g><g id="Layer_1" data-name="Layer 1"><path class="cls-3" d="M114.78,24.11c0,.82-.4,1.23-1.17,1.23a1.46,1.46,0,0,1-1.41-.78,40.13,40.13,0,0,1-1.58-5.32Q107.31,6.72,97.82,2.49,92.18,0,77.72,0,71.08,0,62.43.46V48.35h4.83q15.64,0,19.56-3.13c2.6-2.08,4.58-7.88,5.9-17.37.23-1.36.79-2,1.67-2s1.34.79,1.34,2.35c0-.52-.06.19-.17,2.11s-.16,5.09-.16,9.47V49.92q0,10.95.16,14.47t.17,6c0,1.67-.5,2.51-1.5,2.51-1.45,0-2.28-1.67-2.51-5q-.81-11.43-6-14.87-2.49-1.72-8.82-1.72-8.49,0-14.48.15V89.36q0,10,1.67,11.74t11.55,1.72c2,0,3,.42,3,1.25s-1,1.41-3.15,1.41c-2.42,0-5.35,0-8.77-.16q-10.27-.3-23.2-.31-9.1,0-16.07.35c-.66.08-4.3-.32-4.3-1.22s1.76-1.38,5.3-1.48q7.78-.3,8.61-3.44a10.17,10.17,0,0,0,.67-4.38V4.06a3.69,3.69,0,0,0-1.94-3Q34.22.3,29.44,0T24.66-1.42c0-1,11.1-1.62,19.05-1.72Q57-3.45,67.07-3.45q15.08-.17,25.51,0L104-3q2.65,0,7.95-.46C112.84,8.93,114.78,23.49,114.78,24.11Z" transform="translate(4.33 22.64)"/><path class="cls-3" d="M114.78,23.49l7.6,3.82c.27,10.68-10.18-2.75-10.18-2.75" transform="translate(4.33 22.64)"/><path class="cls-3" d="M29.44,0S17.85,10.3,13.3,4.77s-24.38-3.6-10.08-8.3S25.11-7,27.27-3.53" transform="translate(4.33 22.64)"/><path class="cls-4" d="M23.17,104.14" transform="translate(4.33 22.64)"/></g><g id="Layer_2" data-name="Layer 2"><ellipse class="cls-3" cx="54.28" cy="130.97" rx="32.98" ry="11.84"/><path class="cls-5" d="M93-4.84c-.1-2.84,1.63-5.2,3.87-5.28S101-8,101.1-5.13s-1.19,1.44-3.43,1.52S93.09-2,93-4.84Z" transform="translate(4.33 22.64)"/><ellipse class="cls-6" cx="54.28" cy="136.28" rx="32.98" ry="11.84"/><ellipse class="cls-7" cx="27.5" cy="14.45" rx="14.97" ry="0.9"/><ellipse class="cls-7" cx="24.16" cy="1.06" rx="28.86" ry="13.31" transform="translate(5.98 32.55) rotate(-23.97)"/><path class="cls-7" d="M6.15-1.62c-2.8-2-1.4-15.73,7.63-19.85,8.47-3.86,19.49,2.65,19.85,7.63.53,7.38-22.27,12-26,12.48A2.05,2.05,0,0,1,6.15-1.62Z" transform="translate(4.33 22.64)"/><ellipse class="cls-8" cx="24.37" cy="6.4" rx="28.26" ry="11.94" transform="translate(3.51 28.53) rotate(-13.55)"/><ellipse class="cls-5" cx="91.32" cy="22.53" rx="4.06" ry="5.14"/><ellipse class="cls-5" cx="91.32" cy="29.04" rx="4.06" ry="5.14"/><ellipse class="cls-5" cx="91.32" cy="36.89" rx="4.06" ry="5.14"/><ellipse class="cls-5" cx="91.32" cy="43.54" rx="4.06" ry="5.14"/><ellipse class="cls-5" cx="91.32" cy="51.26" rx="4.06" ry="5.14"/><ellipse class="cls-5" cx="91.32" cy="58.04" rx="4.06" ry="5.14"/><ellipse class="cls-5" cx="91.32" cy="65.04" rx="4.06" ry="5.14"/><ellipse class="cls-9" cx="92.24" cy="66.71" rx="4.06" ry="5.14"/><ellipse class="cls-9" cx="92.24" cy="59.9" rx="4.06" ry="5.14"/><ellipse class="cls-9" cx="92.24" cy="52.91" rx="4.06" ry="5.14"/><ellipse class="cls-5" cx="90.07" cy="-3.53" rx="5.14" ry="4.06" transform="translate(56.26 100.78) rotate(-62.72)"/><ellipse class="cls-5" cx="91.15" cy="73" rx="4.06" ry="5.14"/><ellipse class="cls-5" cx="91.32" cy="80.51" rx="4.06" ry="5.14"/><ellipse class="cls-5" cx="91.15" cy="88.75" rx="4.06" ry="5.14"/><ellipse class="cls-5" cx="91.15" cy="96" rx="4.06" ry="5.14"/></g><g id="Layer_6" data-name="Layer 6"><path class="cls-10" d="M42.88-2.64c-.12.46-8.62.86-19.26.86S4.36-2.17,4.36-2.64,15.81,3.73,23.62-3.5C37.69-16.51,48.48-24.33,42.88-2.64Z" transform="translate(4.33 22.64)"/><path class="cls-11" d="M86.59,77.13" transform="translate(4.33 22.64)"/><path class="cls-12" d="M88.93,79.6" transform="translate(4.33 22.64)"/><ellipse class="cls-13" cx="88.18" cy="81.17" rx="4.95" ry="3.27" transform="translate(-21.08 142.02) rotate(-61.22)"/><ellipse class="cls-13" cx="85.48" cy="81.06" rx="3.29" ry="4.76" transform="translate(-13.78 47.61) rotate(-15.05)"/><path class="cls-14" d="M15.22,71.74c0-3.89,4.1-7,9.15-7s9.16,3.15,9.16,7" transform="translate(4.33 22.64)"/></g></svg>
