<svg xmlns="http://www.w3.org/2000/svg" width="50.94" height="52.4" viewBox="0 0 50.94 52.4"><defs><style>.cls-1{fill:#f2684e;}.cls-2{fill:#fff;}.cls-3,.cls-5{fill:#231f20;}.cls-12,.cls-4,.cls-8{fill:none;}.cls-4,.cls-8{stroke:#fbef5c;stroke-width:0.25px;}.cls-10,.cls-12,.cls-4,.cls-8,.cls-9{stroke-miterlimit:10;}.cls-5{opacity:0.3;}.cls-6,.cls-7{fill:#8b4b47;}.cls-7,.cls-8{opacity:0.2;}.cls-10,.cls-11,.cls-9{fill:#f16143;}.cls-10,.cls-9{stroke:#231f20;}.cls-10,.cls-12{stroke-width:0.5px;}.cls-12{stroke:#7f131e;}</style></defs><title>fashionistas_logo_updated</title><g id="Layer_7" data-name="Layer 7"><rect class="cls-1" x="0.46" y="33.39" width="18.72" height="14.8" rx="1.53"/><circle class="cls-2" cx="2.88" cy="35.97" r="0.35"/><circle class="cls-2" cx="50.59" cy="39.33" r="0.35"/><circle class="cls-2" cx="50.59" cy="39.33" r="0.35"/><circle class="cls-2" cx="50.59" cy="39.33" r="0.35"/></g><g id="Layer_1" data-name="Layer 1"><path class="cls-3" d="M39,8.37c0,.29-.14.44-.41.44a.54.54,0,0,1-.51-.28,16.65,16.65,0,0,1-.56-1.9c-.79-3-2.3-4.95-4.55-5.95q-2-.89-7.15-.89c-1.57,0-3.39,0-5.44.16V17h1.72q5.57,0,7-1.12c.92-.74,1.63-2.8,2.1-6.17.08-.49.28-.73.59-.73s.48.28.48.84c0-.19,0,.06-.06.75s-.06,1.81-.06,3.37v3.61c0,2.6,0,4.32.06,5.15s.06,1.55.06,2.15-.18.89-.54.89-.81-.6-.89-1.78q-.28-4.07-2.13-5.29a5.82,5.82,0,0,0-3.14-.61c-2,0-3.73,0-5.15.05V31.57c0,2.38.2,3.77.6,4.18s1.76.61,4.11.61c.71,0,1.07.15,1.07.44s-.38.51-1.12.51-1.91,0-3.12-.06q-3.66-.11-8.25-.11c-2.16,0-4.07,0-5.72.12-.23,0-1.53-.11-1.53-.43s.63-.49,1.89-.53c1.84-.07,2.86-.48,3.06-1.22a3.59,3.59,0,0,0,.24-1.56V1.24A1.32,1.32,0,0,0,10.93.18,6.81,6.81,0,0,0,8.66-.21C7.53-.29,7-.45,7-.71s4-.58,6.78-.61q4.71-.12,8.3-.12c3.58,0,6.6,0,9.08,0l4.06.17c.63,0,1.57-.05,2.83-.17C38.32,3,39,8.15,39,8.37Z" transform="translate(2.96 8.26)"/><path class="cls-3" d="M39,8.15l2.7,1.36c.1,3.79-3.62-1-3.62-1" transform="translate(2.96 8.26)"/><path class="cls-3" d="M8.66-.21S4.54,3.45,2.92,1.49-5.75.21-.66-1.46s7.78-1.25,8.55,0" transform="translate(2.96 8.26)"/><path class="cls-3" d="M6.43,36.83" transform="translate(2.96 8.26)"/></g><g id="Layer_2" data-name="Layer 2"><ellipse class="cls-3" cx="18.92" cy="46.58" rx="11.73" ry="4.21"/><path class="cls-4" d="M31.26-1.93a1.68,1.68,0,0,1,1.38-1.88A1.68,1.68,0,0,1,34.15-2c0,1-.43.51-1.22.54S31.3-.92,31.26-1.93Z" transform="translate(2.96 8.26)"/><ellipse class="cls-5" cx="18.94" cy="48.19" rx="11.73" ry="4.21"/><ellipse class="cls-6" cx="9.39" cy="5.14" rx="5.33" ry="0.32"/><ellipse class="cls-6" cx="6.78" cy="0.17" rx="10.26" ry="4.73" transform="translate(3.48 11.03) rotate(-23.97)"/><path class="cls-6" d="M.38-.78c-1-.71-.5-5.6,2.71-7.06,3-1.38,6.93.94,7.06,2.71C10.34-2.51,2.23-.88.92-.69A.75.75,0,0,1,.38-.78Z" transform="translate(2.96 8.26)"/><ellipse class="cls-7" cx="6.86" cy="2.07" rx="10.05" ry="4.25" transform="translate(2.67 9.92) rotate(-13.55)"/><ellipse class="cls-4" cx="32.09" cy="8.01" rx="1.44" ry="1.83"/><ellipse class="cls-4" cx="32.09" cy="10.33" rx="1.44" ry="1.83"/><ellipse class="cls-4" cx="32.09" cy="13.12" rx="1.44" ry="1.83"/><ellipse class="cls-4" cx="32.09" cy="15.49" rx="1.44" ry="1.83"/><ellipse class="cls-4" cx="32.09" cy="18.23" rx="1.44" ry="1.83"/><ellipse class="cls-4" cx="32.09" cy="20.64" rx="1.44" ry="1.83"/><ellipse class="cls-4" cx="32.09" cy="23.13" rx="1.44" ry="1.83"/><ellipse class="cls-8" cx="32.42" cy="23.72" rx="1.44" ry="1.83"/><ellipse class="cls-8" cx="32.42" cy="21.3" rx="1.44" ry="1.83"/><ellipse class="cls-8" cx="32.42" cy="18.82" rx="1.44" ry="1.83"/><ellipse class="cls-4" cx="30.22" cy="-1.46" rx="1.83" ry="1.44" transform="translate(20.63 34.33) rotate(-62.72)"/><ellipse class="cls-4" cx="32.03" cy="25.96" rx="1.44" ry="1.83"/><ellipse class="cls-4" cx="32.09" cy="28.63" rx="1.44" ry="1.83"/><ellipse class="cls-4" cx="32.03" cy="31.56" rx="1.44" ry="1.83"/><ellipse class="cls-4" cx="32.03" cy="34.14" rx="1.44" ry="1.83"/></g><g id="Layer_6" data-name="Layer 6"><path class="cls-1" d="M13.44-1.15a38.64,38.64,0,0,1-6.85.31C2.81-.84-.26-1-.26-1.15s4.07,2.27,6.85-.3C11.6-6.08,15.43-8.86,13.44-1.15Z" transform="translate(2.96 8.26)"/><path class="cls-9" d="M29,27.22" transform="translate(2.96 8.26)"/><path class="cls-10" d="M29.82,28.1" transform="translate(2.96 8.26)"/><ellipse class="cls-11" cx="29.55" cy="28.66" rx="1.76" ry="1.16" transform="translate(-6.83 49.02) rotate(-61.22)"/><ellipse class="cls-11" cx="28.59" cy="28.62" rx="1.17" ry="1.69" transform="translate(-3.49 16.66) rotate(-15.05)"/><path class="cls-12" d="M3.6,25.31c0-1.39,1.46-2.51,3.26-2.51s3.25,1.12,3.25,2.51" transform="translate(2.96 8.26)"/></g></svg>
